# 3ds Max Wavefront OBJ Exporter v0.97b - (c)2007 guruware
# File Created: 04.09.2011 14:58:30

#
# object Plane01
#

v  -0.500000000000 0.000000000000 0.500000000000
v  -0.250000000000 0.000000000000 0.500000000000
v  0.000000000000 0.000000000000 0.500000000000
v  0.250000000000 0.000000000000 0.500000000000
v  0.500000000000 0.000000000000 0.500000000000
v  -0.500000000000 0.000000000000 0.250000000000
v  -0.250000000000 0.000000000000 0.250000000000
v  0.000000000000 0.000000000000 0.250000000000
v  0.250000000000 0.000000000000 0.250000000000
v  0.500000000000 0.000000000000 0.250000000000
v  -0.500000000000 0.000000000000 -0.000000000000
v  -0.250000000000 0.000000000000 -0.000000000000
v  0.000000000000 0.000000000000 -0.000000000000
v  0.250000000000 0.000000000000 -0.000000000000
v  0.500000000000 0.000000000000 -0.000000000000
v  -0.500000000000 0.000000000000 -0.250000000000
v  -0.250000000000 0.000000000000 -0.250000000000
v  0.000000000000 0.000000000000 -0.250000000000
v  0.250000000000 0.000000000000 -0.250000000000
v  0.500000000000 0.000000000000 -0.250000000000
v  -0.500000000000 0.000000000000 -0.500000000000
v  -0.250000000000 0.000000000000 -0.500000000000
v  0.000000000000 0.000000000000 -0.500000000000
v  0.250000000000 0.000000000000 -0.500000000000
v  0.500000000000 0.000000000000 -0.500000000000
# 25 vertices

vn 0.000000000000 1.000000000000 -0.000000000000
vn 0.000000000000 1.000000000000 -0.000000000000
vn 0.000000000000 1.000000000000 -0.000000000000
vn 0.000000000000 1.000000000000 -0.000000000000
vn 0.000000000000 1.000000000000 -0.000000000000
vn 0.000000000000 1.000000000000 -0.000000000000
vn 0.000000000000 1.000000000000 -0.000000000000
vn 0.000000000000 1.000000000000 -0.000000000000
vn 0.000000000000 1.000000000000 -0.000000000000
vn 0.000000000000 1.000000000000 -0.000000000000
vn 0.000000000000 1.000000000000 -0.000000000000
vn 0.000000000000 1.000000000000 -0.000000000000
vn 0.000000000000 1.000000000000 -0.000000000000
vn 0.000000000000 1.000000000000 -0.000000000000
vn 0.000000000000 1.000000000000 -0.000000000000
vn 0.000000000000 1.000000000000 -0.000000000000
vn 0.000000000000 1.000000000000 -0.000000000000
vn 0.000000000000 1.000000000000 -0.000000000000
vn 0.000000000000 1.000000000000 -0.000000000000
vn 0.000000000000 1.000000000000 -0.000000000000
vn 0.000000000000 1.000000000000 -0.000000000000
vn 0.000000000000 1.000000000000 -0.000000000000
vn 0.000000000000 1.000000000000 -0.000000000000
vn 0.000000000000 1.000000000000 -0.000000000000
vn 0.000000000000 1.000000000000 -0.000000000000
vn 0.000000000000 1.000000000000 -0.000000000000
vn 0.000000000000 1.000000000000 -0.000000000000
vn 0.000000000000 1.000000000000 -0.000000000000
vn 0.000000000000 1.000000000000 -0.000000000000
vn 0.000000000000 1.000000000000 -0.000000000000
vn 0.000000000000 1.000000000000 -0.000000000000
vn 0.000000000000 1.000000000000 -0.000000000000
vn 0.000000000000 1.000000000000 -0.000000000000
vn 0.000000000000 1.000000000000 -0.000000000000
vn 0.000000000000 1.000000000000 -0.000000000000
vn 0.000000000000 1.000000000000 -0.000000000000
vn 0.000000000000 1.000000000000 -0.000000000000
vn 0.000000000000 1.000000000000 -0.000000000000
vn 0.000000000000 1.000000000000 -0.000000000000
vn 0.000000000000 1.000000000000 -0.000000000000
vn 0.000000000000 1.000000000000 -0.000000000000
vn 0.000000000000 1.000000000000 -0.000000000000
vn 0.000000000000 1.000000000000 -0.000000000000
vn 0.000000000000 1.000000000000 -0.000000000000
vn 0.000000000000 1.000000000000 -0.000000000000
vn 0.000000000000 1.000000000000 -0.000000000000
vn 0.000000000000 1.000000000000 -0.000000000000
vn 0.000000000000 1.000000000000 -0.000000000000
vn 0.000000000000 1.000000000000 -0.000000000000
vn 0.000000000000 1.000000000000 -0.000000000000
vn 0.000000000000 1.000000000000 -0.000000000000
vn 0.000000000000 1.000000000000 -0.000000000000
vn 0.000000000000 1.000000000000 -0.000000000000
vn 0.000000000000 1.000000000000 -0.000000000000
vn 0.000000000000 1.000000000000 -0.000000000000
vn 0.000000000000 1.000000000000 -0.000000000000
vn 0.000000000000 1.000000000000 -0.000000000000
vn 0.000000000000 1.000000000000 -0.000000000000
vn 0.000000000000 1.000000000000 -0.000000000000
vn 0.000000000000 1.000000000000 -0.000000000000
vn 0.000000000000 1.000000000000 -0.000000000000
vn 0.000000000000 1.000000000000 -0.000000000000
vn 0.000000000000 1.000000000000 -0.000000000000
vn 0.000000000000 1.000000000000 -0.000000000000
vn 0.000000000000 1.000000000000 -0.000000000000
vn 0.000000000000 1.000000000000 -0.000000000000
vn 0.000000000000 1.000000000000 -0.000000000000
vn 0.000000000000 1.000000000000 -0.000000000000
vn 0.000000000000 1.000000000000 -0.000000000000
vn 0.000000000000 1.000000000000 -0.000000000000
vn 0.000000000000 1.000000000000 -0.000000000000
vn 0.000000000000 1.000000000000 -0.000000000000
vn 0.000000000000 1.000000000000 -0.000000000000
vn 0.000000000000 1.000000000000 -0.000000000000
vn 0.000000000000 1.000000000000 -0.000000000000
vn 0.000000000000 1.000000000000 -0.000000000000
vn 0.000000000000 1.000000000000 -0.000000000000
vn 0.000000000000 1.000000000000 -0.000000000000
vn 0.000000000000 1.000000000000 -0.000000000000
vn 0.000000000000 1.000000000000 -0.000000000000
vn 0.000000000000 1.000000000000 -0.000000000000
vn 0.000000000000 1.000000000000 -0.000000000000
vn 0.000000000000 1.000000000000 -0.000000000000
vn 0.000000000000 1.000000000000 -0.000000000000
vn 0.000000000000 1.000000000000 -0.000000000000
vn 0.000000000000 1.000000000000 -0.000000000000
vn 0.000000000000 1.000000000000 -0.000000000000
vn 0.000000000000 1.000000000000 -0.000000000000
vn 0.000000000000 1.000000000000 -0.000000000000
vn 0.000000000000 1.000000000000 -0.000000000000
vn 0.000000000000 1.000000000000 -0.000000000000
vn 0.000000000000 1.000000000000 -0.000000000000
vn 0.000000000000 1.000000000000 -0.000000000000
vn 0.000000000000 1.000000000000 -0.000000000000
vn 0.000000000000 1.000000000000 -0.000000000000
vn 0.000000000000 1.000000000000 -0.000000000000
# 96 vertex normals

vt 0.000000000000 0.000000000000 0.000000000000
vt 0.250000000000 0.000000000000 0.000000000000
vt 0.500000000000 0.000000000000 0.000000000000
vt 0.750000000000 0.000000000000 0.000000000000
vt 1.000000000000 0.000000000000 0.000000000000
vt 0.000000000000 0.000000000000 0.000000000000
vt 0.250000000000 0.000000000000 0.000000000000
vt 0.500000000000 0.000000000000 0.000000000000
vt 0.750000000000 0.000000000000 0.000000000000
vt 1.000000000000 0.000000000000 0.000000000000
vt 0.000000000000 0.000000000000 0.000000000000
vt 0.250000000000 0.000000000000 0.000000000000
vt 0.500000000000 0.000000000000 0.000000000000
vt 0.750000000000 0.000000000000 0.000000000000
vt 1.000000000000 0.000000000000 0.000000000000
vt 0.000000000000 0.250000000000 0.000000000000
vt 0.250000000000 0.250000000000 0.000000000000
vt 0.500000000000 0.250000000000 0.000000000000
vt 0.750000000000 0.250000000000 0.000000000000
vt 1.000000000000 0.250000000000 0.000000000000
vt 0.000000000000 0.500000000000 0.000000000000
vt 0.250000000000 0.500000000000 0.000000000000
vt 0.500000000000 0.500000000000 0.000000000000
vt 0.750000000000 0.500000000000 0.000000000000
vt 1.000000000000 0.500000000000 0.000000000000
vt 0.000000000000 0.750000000000 0.000000000000
vt 0.250000000000 0.750000000000 0.000000000000
vt 0.500000000000 0.750000000000 0.000000000000
vt 0.750000000000 0.750000000000 0.000000000000
vt 1.000000000000 0.750000000000 0.000000000000
vt 0.000000000000 1.000000000000 0.000000000000
vt 0.250000000000 1.000000000000 0.000000000000
vt 0.500000000000 1.000000000000 0.000000000000
vt 0.750000000000 1.000000000000 0.000000000000
vt 1.000000000000 1.000000000000 0.000000000000
# 35 texture coords

g Plane01
f 6/16/1 1/11/2 7/17/3 
f 2/12/4 7/17/5 1/11/6 
f 7/17/7 2/12/8 8/18/9 
f 3/13/10 8/18/11 2/12/12 
f 8/18/13 3/13/14 9/19/15 
f 4/14/16 9/19/17 3/13/18 
f 9/19/19 4/14/20 10/20/21 
f 5/15/22 10/20/23 4/14/24 
f 11/21/25 6/16/26 12/22/27 
f 7/17/28 12/22/29 6/16/30 
f 12/22/31 7/17/32 13/23/33 
f 8/18/34 13/23/35 7/17/36 
f 13/23/37 8/18/38 14/24/39 
f 9/19/40 14/24/41 8/18/42 
f 14/24/43 9/19/44 15/25/45 
f 10/20/46 15/25/47 9/19/48 
f 16/26/49 11/21/50 17/27/51 
f 12/22/52 17/27/53 11/21/54 
f 17/27/55 12/22/56 18/28/57 
f 13/23/58 18/28/59 12/22/60 
f 18/28/61 13/23/62 19/29/63 
f 14/24/64 19/29/65 13/23/66 
f 19/29/67 14/24/68 20/30/69 
f 15/25/70 20/30/71 14/24/72 
f 21/31/73 16/26/74 22/32/75 
f 17/27/76 22/32/77 16/26/78 
f 22/32/79 17/27/80 23/33/81 
f 18/28/82 23/33/83 17/27/84 
f 23/33/85 18/28/86 24/34/87 
f 19/29/88 24/34/89 18/28/90 
f 24/34/91 19/29/92 25/35/93 
f 20/30/94 25/35/95 19/29/96 
# 32 faces

