# 3ds Max Wavefront OBJ Exporter v0.97b - (c)2007 guruware
# File Created: 22.02.2011 21:34:29

#
# object Pyramid01
#

v  0.500000000000 1.000000000000 -0.500000000000
v  0.000000000000 0.000000000000 -0.000000000000
v  1.000000000000 0.000000000000 -0.000000000000
v  1.000000000000 0.000000000000 -1.000000000000
v  0.000000000000 0.000000000000 -1.000000000000
v  0.500000000000 0.000000000000 -0.500000000000
# 6 vertices

vn 0.000000000000 0.447213590145 0.894427180290
vn 0.000000000000 0.447213590145 0.894427180290
vn 0.000000000000 0.447213590145 0.894427180290
vn 0.894427180290 0.447213590145 -0.000000000000
vn 0.894427180290 0.447213590145 -0.000000000000
vn 0.894427180290 0.447213590145 -0.000000000000
vn 0.000000000000 0.447213590145 -0.894427180290
vn 0.000000000000 0.447213590145 -0.894427180290
vn 0.000000000000 0.447213590145 -0.894427180290
vn -0.894427180290 0.447213590145 -0.000000000000
vn -0.894427180290 0.447213590145 -0.000000000000
vn -0.894427180290 0.447213590145 -0.000000000000
vn 0.000000000000 -1.000000000000 -0.000000000000
vn 0.000000000000 -1.000000000000 -0.000000000000
vn 0.000000000000 -1.000000000000 -0.000000000000
vn 0.000000000000 -1.000000000000 -0.000000000000
vn 0.000000000000 -1.000000000000 -0.000000000000
vn 0.000000000000 -1.000000000000 -0.000000000000
vn 0.000000000000 -1.000000000000 -0.000000000000
vn 0.000000000000 -1.000000000000 -0.000000000000
vn 0.000000000000 -1.000000000000 -0.000000000000
vn 0.000000000000 -1.000000000000 -0.000000000000
vn 0.000000000000 -1.000000000000 -0.000000000000
vn 0.000000000000 -1.000000000000 -0.000000000000
# 24 vertex normals

vt 0.500000000000 1.000000000000 0.000000000000
vt 0.000000000000 0.000000000000 0.000000000000
vt 1.000000000000 0.000000000000 0.000000000000
vt 0.000000000000 0.000000000000 0.000000000000
vt 1.000000000000 0.000000000000 0.000000000000
vt 0.000000000000 1.000000000000 0.000000000000
vt 1.000000000000 1.000000000000 0.000000000000
vt 1.000000000000 0.000000000000 0.000000000000
vt 0.000000000000 0.000000000000 0.000000000000
vt 0.500000000000 0.500000000000 0.000000000000
vt 0.500000000000 1.000000000000 0.000000000000
# 11 texture coords

g Pyramid01
f 1/1/1 2/2/2 3/3/3 
f 1/11/4 3/4/5 4/5/6 
f 1/1/7 4/2/8 5/3/9 
f 1/11/10 5/4/11 2/5/12 
f 2/6/13 6/10/14 3/7/15 
f 3/7/16 6/10/17 4/8/18 
f 4/8/19 6/10/20 5/9/21 
f 5/9/22 6/10/23 2/6/24 
# 8 faces

