# 3ds Max Wavefront OBJ Exporter v0.97b - (c)2007 guruware
# File Created: 18.10.2010 16:04:20

#
# object Box06
#

v  -80.000000000000 45.000000000000 80.000000000000
v  80.000000000000 45.000000000000 80.000000000000
v  -80.000000000000 45.000000000000 -80.000000000000
v  80.000000000000 45.000000000000 -80.000000000000
v  -80.000000000000 46.000000000000 80.000000000000
v  80.000000000000 46.000000000000 80.000000000000
v  -80.000000000000 46.000000000000 -80.000000000000
v  80.000000000000 46.000000000000 -80.000000000000
v  -77.500000000000 -5.000000000000 74.499984741211
v  -77.500000000000 -5.000000000000 75.499984741211
v  77.500000000000 -5.000000000000 74.500015258789
v  77.500000000000 -5.000000000000 75.500015258789
v  -77.500000000000 50.000000000000 74.499984741211
v  -77.500000000000 50.000000000000 75.499984741211
v  77.500000000000 50.000000000000 74.500015258789
v  77.500000000000 50.000000000000 75.500015258789
v  -75.500000000000 -5.000000000000 77.500000000000
v  -74.500000000000 -5.000000000000 77.500000000000
v  -75.500000000000 -5.000000000000 -77.500000000000
v  -74.500000000000 -5.000000000000 -77.500000000000
v  -75.500000000000 50.000000000000 77.500000000000
v  -74.500000000000 50.000000000000 77.500000000000
v  -75.500000000000 50.000000000000 -77.500000000000
v  -74.500000000000 50.000000000000 -77.500000000000
v  -80.000000000000 -0.500000000000 80.000000000000
v  80.000000000000 -0.500000000000 80.000000000000
v  -80.000000000000 -0.500000000000 -80.000000000000
v  80.000000000000 -0.500000000000 -80.000000000000
v  -80.000000000000 0.500000000000 80.000000000000
v  80.000000000000 0.500000000000 80.000000000000
v  -80.000000000000 0.500000000000 -80.000000000000
v  80.000000000000 0.500000000000 -80.000000000000
v  -77.500000000000 -5.000000000000 -75.500015258789
v  -77.500000000000 -5.000000000000 -74.500015258789
v  77.500000000000 -5.000000000000 -75.499984741211
v  77.500000000000 -5.000000000000 -74.499984741211
v  -77.500000000000 50.000000000000 -75.500015258789
v  -77.500000000000 50.000000000000 -74.500015258789
v  77.500000000000 50.000000000000 -75.499984741211
v  77.500000000000 50.000000000000 -74.499984741211
v  74.500000000000 -5.000000000000 76.724998474121
v  75.500000000000 -5.000000000000 76.724998474121
v  74.500000000000 -5.000000000000 -76.724998474121
v  75.500000000000 -5.000000000000 -76.724998474121
v  74.500000000000 50.000000000000 76.724998474121
v  75.500000000000 50.000000000000 76.724998474121
v  74.500000000000 50.000000000000 -76.724998474121
v  75.500000000000 50.000000000000 -76.724998474121
# 48 vertices

vn 0.000000000000 -1.000000000000 -0.000000000000
vn 0.000000000000 -1.000000000000 -0.000000000000
vn 0.000000000000 -1.000000000000 -0.000000000000
vn 0.000000000000 -1.000000000000 -0.000000000000
vn 0.000000000000 -1.000000000000 -0.000000000000
vn 0.000000000000 -1.000000000000 -0.000000000000
vn 0.000000000000 1.000000000000 -0.000000000000
vn 0.000000000000 1.000000000000 -0.000000000000
vn 0.000000000000 1.000000000000 -0.000000000000
vn 0.000000000000 1.000000000000 -0.000000000000
vn 0.000000000000 1.000000000000 -0.000000000000
vn 0.000000000000 1.000000000000 -0.000000000000
vn 0.000000000000 0.000000000000 1.000000000000
vn 0.000000000000 0.000000000000 1.000000000000
vn 0.000000000000 0.000000000000 1.000000000000
vn 0.000000000000 0.000000000000 1.000000000000
vn 0.000000000000 0.000000000000 1.000000000000
vn 0.000000000000 0.000000000000 1.000000000000
vn 1.000000000000 0.000000000000 -0.000000000000
vn 1.000000000000 0.000000000000 -0.000000000000
vn 1.000000000000 0.000000000000 -0.000000000000
vn 1.000000000000 0.000000000000 -0.000000000000
vn 1.000000000000 0.000000000000 -0.000000000000
vn 1.000000000000 0.000000000000 -0.000000000000
vn 0.000000000000 0.000000000000 -1.000000000000
vn 0.000000000000 0.000000000000 -1.000000000000
vn 0.000000000000 0.000000000000 -1.000000000000
vn 0.000000000000 0.000000000000 -1.000000000000
vn 0.000000000000 0.000000000000 -1.000000000000
vn 0.000000000000 0.000000000000 -1.000000000000
vn -1.000000000000 0.000000000000 -0.000000000000
vn -1.000000000000 0.000000000000 -0.000000000000
vn -1.000000000000 0.000000000000 -0.000000000000
vn -1.000000000000 0.000000000000 -0.000000000000
vn -1.000000000000 0.000000000000 -0.000000000000
vn -1.000000000000 0.000000000000 -0.000000000000
vn 0.000000000000 -1.000000000000 -0.000000000000
vn 0.000000000000 -1.000000000000 -0.000000000000
vn 0.000000000000 -1.000000000000 -0.000000000000
vn 0.000000000000 -1.000000000000 -0.000000000000
vn 0.000000000000 -1.000000000000 -0.000000000000
vn 0.000000000000 -1.000000000000 -0.000000000000
vn 0.000000000000 1.000000000000 -0.000000000000
vn 0.000000000000 1.000000000000 -0.000000000000
vn 0.000000000000 1.000000000000 -0.000000000000
vn 0.000000000000 1.000000000000 -0.000000000000
vn 0.000000000000 1.000000000000 -0.000000000000
vn 0.000000000000 1.000000000000 -0.000000000000
vn -1.000000000000 0.000000000000 -0.000000000000
vn -1.000000000000 0.000000000000 -0.000000000000
vn -1.000000000000 0.000000000000 -0.000000000000
vn -1.000000000000 0.000000000000 -0.000000000000
vn -1.000000000000 0.000000000000 -0.000000000000
vn -1.000000000000 0.000000000000 -0.000000000000
vn -0.000000196888 0.000000000000 1.000000000000
vn -0.000000196888 0.000000000000 1.000000000000
vn -0.000000196888 0.000000000000 1.000000000000
vn -0.000000196888 0.000000000000 1.000000000000
vn -0.000000196888 0.000000000000 1.000000000000
vn -0.000000196888 0.000000000000 1.000000000000
vn 1.000000000000 0.000000000000 -0.000000000000
vn 1.000000000000 0.000000000000 -0.000000000000
vn 1.000000000000 0.000000000000 -0.000000000000
vn 1.000000000000 0.000000000000 -0.000000000000
vn 1.000000000000 0.000000000000 -0.000000000000
vn 1.000000000000 0.000000000000 -0.000000000000
vn 0.000000196888 0.000000000000 -1.000000000000
vn 0.000000196888 0.000000000000 -1.000000000000
vn 0.000000196888 0.000000000000 -1.000000000000
vn 0.000000196888 0.000000000000 -1.000000000000
vn 0.000000196888 0.000000000000 -1.000000000000
vn 0.000000196888 0.000000000000 -1.000000000000
vn 0.000000000000 -1.000000000000 -0.000000000000
vn 0.000000000000 -1.000000000000 -0.000000000000
vn 0.000000000000 -1.000000000000 -0.000000000000
vn 0.000000000000 -1.000000000000 -0.000000000000
vn 0.000000000000 -1.000000000000 -0.000000000000
vn 0.000000000000 -1.000000000000 -0.000000000000
vn 0.000000000000 1.000000000000 -0.000000000000
vn 0.000000000000 1.000000000000 -0.000000000000
vn 0.000000000000 1.000000000000 -0.000000000000
vn 0.000000000000 1.000000000000 -0.000000000000
vn 0.000000000000 1.000000000000 -0.000000000000
vn 0.000000000000 1.000000000000 -0.000000000000
vn 0.000000000000 0.000000000000 1.000000000000
vn 0.000000000000 0.000000000000 1.000000000000
vn 0.000000000000 0.000000000000 1.000000000000
vn 0.000000000000 0.000000000000 1.000000000000
vn 0.000000000000 0.000000000000 1.000000000000
vn 0.000000000000 0.000000000000 1.000000000000
vn 1.000000000000 0.000000000000 -0.000000000000
vn 1.000000000000 0.000000000000 -0.000000000000
vn 1.000000000000 0.000000000000 -0.000000000000
vn 1.000000000000 0.000000000000 -0.000000000000
vn 1.000000000000 0.000000000000 -0.000000000000
vn 1.000000000000 0.000000000000 -0.000000000000
vn 0.000000000000 0.000000000000 -1.000000000000
vn 0.000000000000 0.000000000000 -1.000000000000
vn 0.000000000000 0.000000000000 -1.000000000000
vn 0.000000000000 0.000000000000 -1.000000000000
vn 0.000000000000 0.000000000000 -1.000000000000
vn 0.000000000000 0.000000000000 -1.000000000000
vn -1.000000000000 0.000000000000 -0.000000000000
vn -1.000000000000 0.000000000000 -0.000000000000
vn -1.000000000000 0.000000000000 -0.000000000000
vn -1.000000000000 0.000000000000 -0.000000000000
vn -1.000000000000 0.000000000000 -0.000000000000
vn -1.000000000000 0.000000000000 -0.000000000000
vn 0.000000000000 -1.000000000000 -0.000000000000
vn 0.000000000000 -1.000000000000 -0.000000000000
vn 0.000000000000 -1.000000000000 -0.000000000000
vn 0.000000000000 -1.000000000000 -0.000000000000
vn 0.000000000000 -1.000000000000 -0.000000000000
vn 0.000000000000 -1.000000000000 -0.000000000000
vn 0.000000000000 1.000000000000 -0.000000000000
vn 0.000000000000 1.000000000000 -0.000000000000
vn 0.000000000000 1.000000000000 -0.000000000000
vn 0.000000000000 1.000000000000 -0.000000000000
vn 0.000000000000 1.000000000000 -0.000000000000
vn 0.000000000000 1.000000000000 -0.000000000000
vn 0.000000000000 0.000000000000 1.000000000000
vn 0.000000000000 0.000000000000 1.000000000000
vn 0.000000000000 0.000000000000 1.000000000000
vn 0.000000000000 0.000000000000 1.000000000000
vn 0.000000000000 0.000000000000 1.000000000000
vn 0.000000000000 0.000000000000 1.000000000000
vn 1.000000000000 0.000000000000 -0.000000000000
vn 1.000000000000 0.000000000000 -0.000000000000
vn 1.000000000000 0.000000000000 -0.000000000000
vn 1.000000000000 0.000000000000 -0.000000000000
vn 1.000000000000 0.000000000000 -0.000000000000
vn 1.000000000000 0.000000000000 -0.000000000000
vn 0.000000000000 0.000000000000 -1.000000000000
vn 0.000000000000 0.000000000000 -1.000000000000
vn 0.000000000000 0.000000000000 -1.000000000000
vn 0.000000000000 0.000000000000 -1.000000000000
vn 0.000000000000 0.000000000000 -1.000000000000
vn 0.000000000000 0.000000000000 -1.000000000000
vn -1.000000000000 0.000000000000 -0.000000000000
vn -1.000000000000 0.000000000000 -0.000000000000
vn -1.000000000000 0.000000000000 -0.000000000000
vn -1.000000000000 0.000000000000 -0.000000000000
vn -1.000000000000 0.000000000000 -0.000000000000
vn -1.000000000000 0.000000000000 -0.000000000000
vn 0.000000000000 -1.000000000000 -0.000000000000
vn 0.000000000000 -1.000000000000 -0.000000000000
vn 0.000000000000 -1.000000000000 -0.000000000000
vn 0.000000000000 -1.000000000000 -0.000000000000
vn 0.000000000000 -1.000000000000 -0.000000000000
vn 0.000000000000 -1.000000000000 -0.000000000000
vn 0.000000000000 1.000000000000 -0.000000000000
vn 0.000000000000 1.000000000000 -0.000000000000
vn 0.000000000000 1.000000000000 -0.000000000000
vn 0.000000000000 1.000000000000 -0.000000000000
vn 0.000000000000 1.000000000000 -0.000000000000
vn 0.000000000000 1.000000000000 -0.000000000000
vn -1.000000000000 0.000000000000 -0.000000000000
vn -1.000000000000 0.000000000000 -0.000000000000
vn -1.000000000000 0.000000000000 -0.000000000000
vn -1.000000000000 0.000000000000 -0.000000000000
vn -1.000000000000 0.000000000000 -0.000000000000
vn -1.000000000000 0.000000000000 -0.000000000000
vn -0.000000196888 0.000000000000 1.000000000000
vn -0.000000196888 0.000000000000 1.000000000000
vn -0.000000196888 0.000000000000 1.000000000000
vn -0.000000196888 0.000000000000 1.000000000000
vn -0.000000196888 0.000000000000 1.000000000000
vn -0.000000196888 0.000000000000 1.000000000000
vn 1.000000000000 0.000000000000 -0.000000000000
vn 1.000000000000 0.000000000000 -0.000000000000
vn 1.000000000000 0.000000000000 -0.000000000000
vn 1.000000000000 0.000000000000 -0.000000000000
vn 1.000000000000 0.000000000000 -0.000000000000
vn 1.000000000000 0.000000000000 -0.000000000000
vn 0.000000196888 0.000000000000 -1.000000000000
vn 0.000000196888 0.000000000000 -1.000000000000
vn 0.000000196888 0.000000000000 -1.000000000000
vn 0.000000196888 0.000000000000 -1.000000000000
vn 0.000000196888 0.000000000000 -1.000000000000
vn 0.000000196888 0.000000000000 -1.000000000000
vn 0.000000000000 -1.000000000000 -0.000000000000
vn 0.000000000000 -1.000000000000 -0.000000000000
vn 0.000000000000 -1.000000000000 -0.000000000000
vn 0.000000000000 -1.000000000000 -0.000000000000
vn 0.000000000000 -1.000000000000 -0.000000000000
vn 0.000000000000 -1.000000000000 -0.000000000000
vn 0.000000000000 1.000000000000 -0.000000000000
vn 0.000000000000 1.000000000000 -0.000000000000
vn 0.000000000000 1.000000000000 -0.000000000000
vn 0.000000000000 1.000000000000 -0.000000000000
vn 0.000000000000 1.000000000000 -0.000000000000
vn 0.000000000000 1.000000000000 -0.000000000000
vn 0.000000000000 0.000000000000 1.000000000000
vn 0.000000000000 0.000000000000 1.000000000000
vn 0.000000000000 0.000000000000 1.000000000000
vn 0.000000000000 0.000000000000 1.000000000000
vn 0.000000000000 0.000000000000 1.000000000000
vn 0.000000000000 0.000000000000 1.000000000000
vn 1.000000000000 0.000000000000 -0.000000000000
vn 1.000000000000 0.000000000000 -0.000000000000
vn 1.000000000000 0.000000000000 -0.000000000000
vn 1.000000000000 0.000000000000 -0.000000000000
vn 1.000000000000 0.000000000000 -0.000000000000
vn 1.000000000000 0.000000000000 -0.000000000000
vn 0.000000000000 0.000000000000 -1.000000000000
vn 0.000000000000 0.000000000000 -1.000000000000
vn 0.000000000000 0.000000000000 -1.000000000000
vn 0.000000000000 0.000000000000 -1.000000000000
vn 0.000000000000 0.000000000000 -1.000000000000
vn 0.000000000000 0.000000000000 -1.000000000000
vn -1.000000000000 0.000000000000 -0.000000000000
vn -1.000000000000 0.000000000000 -0.000000000000
vn -1.000000000000 0.000000000000 -0.000000000000
vn -1.000000000000 0.000000000000 -0.000000000000
vn -1.000000000000 0.000000000000 -0.000000000000
vn -1.000000000000 0.000000000000 -0.000000000000
# 216 vertex normals

vt 1.000000000000 0.000000000000 0.000000000000
vt 0.000000000000 0.000000000000 0.000000000000
vt 1.000000000000 1.000000000000 0.000000000000
vt 0.000000000000 1.000000000000 0.000000000000
vt 0.000000000000 0.000000000000 0.000000000000
vt 1.000000000000 0.000000000000 0.000000000000
vt 0.000000000000 1.000000000000 0.000000000000
vt 1.000000000000 1.000000000000 0.000000000000
vt 0.000000000000 0.000000000000 0.000000000000
vt 1.000000000000 0.000000000000 0.000000000000
vt 0.000000000000 1.000000000000 0.000000000000
vt 1.000000000000 1.000000000000 0.000000000000
vt 0.000000000000 0.000000000000 0.000000000000
vt 1.000000000000 0.000000000000 0.000000000000
vt 0.000000000000 1.000000000000 0.000000000000
vt 1.000000000000 1.000000000000 0.000000000000
vt 0.000000000000 0.000000000000 0.000000000000
vt 1.000000000000 0.000000000000 0.000000000000
vt 0.000000000000 1.000000000000 0.000000000000
vt 1.000000000000 1.000000000000 0.000000000000
vt 0.000000000000 0.000000000000 0.000000000000
vt 1.000000000000 0.000000000000 0.000000000000
vt 0.000000000000 1.000000000000 0.000000000000
vt 1.000000000000 1.000000000000 0.000000000000
vt 1.000000000000 0.000000000000 0.000000000000
vt 0.000000000000 0.000000000000 0.000000000000
vt 1.000000000000 1.000000000000 0.000000000000
vt 0.000000000000 1.000000000000 0.000000000000
vt 0.000000000000 0.000000000000 0.000000000000
vt 1.000000000000 0.000000000000 0.000000000000
vt 0.000000000000 1.000000000000 0.000000000000
vt 1.000000000000 1.000000000000 0.000000000000
vt 0.000000000000 0.000000000000 0.000000000000
vt 1.000000000000 0.000000000000 0.000000000000
vt 0.000000000000 1.000000000000 0.000000000000
vt 1.000000000000 1.000000000000 0.000000000000
vt 0.000000000000 0.000000000000 0.000000000000
vt 1.000000000000 0.000000000000 0.000000000000
vt 0.000000000000 1.000000000000 0.000000000000
vt 1.000000000000 1.000000000000 0.000000000000
vt 0.000000000000 0.000000000000 0.000000000000
vt 1.000000000000 0.000000000000 0.000000000000
vt 0.000000000000 1.000000000000 0.000000000000
vt 1.000000000000 1.000000000000 0.000000000000
vt 0.000000000000 0.000000000000 0.000000000000
vt 1.000000000000 0.000000000000 0.000000000000
vt 0.000000000000 1.000000000000 0.000000000000
vt 1.000000000000 1.000000000000 0.000000000000
vt 1.000000000000 0.000000000000 0.000000000000
vt 0.000000000000 0.000000000000 0.000000000000
vt 1.000000000000 1.000000000000 0.000000000000
vt 0.000000000000 1.000000000000 0.000000000000
vt 0.000000000000 0.000000000000 0.000000000000
vt 1.000000000000 0.000000000000 0.000000000000
vt 0.000000000000 1.000000000000 0.000000000000
vt 1.000000000000 1.000000000000 0.000000000000
vt 0.000000000000 0.000000000000 0.000000000000
vt 1.000000000000 0.000000000000 0.000000000000
vt 0.000000000000 1.000000000000 0.000000000000
vt 1.000000000000 1.000000000000 0.000000000000
vt 0.000000000000 0.000000000000 0.000000000000
vt 1.000000000000 0.000000000000 0.000000000000
vt 0.000000000000 1.000000000000 0.000000000000
vt 1.000000000000 1.000000000000 0.000000000000
vt 0.000000000000 0.000000000000 0.000000000000
vt 1.000000000000 0.000000000000 0.000000000000
vt 0.000000000000 1.000000000000 0.000000000000
vt 1.000000000000 1.000000000000 0.000000000000
vt 0.000000000000 0.000000000000 0.000000000000
vt 1.000000000000 0.000000000000 0.000000000000
vt 0.000000000000 1.000000000000 0.000000000000
vt 1.000000000000 1.000000000000 0.000000000000
vt 1.000000000000 0.000000000000 0.000000000000
vt 0.000000000000 0.000000000000 0.000000000000
vt 1.000000000000 1.000000000000 0.000000000000
vt 0.000000000000 1.000000000000 0.000000000000
vt 0.000000000000 0.000000000000 0.000000000000
vt 1.000000000000 0.000000000000 0.000000000000
vt 0.000000000000 1.000000000000 0.000000000000
vt 1.000000000000 1.000000000000 0.000000000000
vt 0.000000000000 0.000000000000 0.000000000000
vt 1.000000000000 0.000000000000 0.000000000000
vt 0.000000000000 1.000000000000 0.000000000000
vt 1.000000000000 1.000000000000 0.000000000000
vt 0.000000000000 0.000000000000 0.000000000000
vt 1.000000000000 0.000000000000 0.000000000000
vt 0.000000000000 1.000000000000 0.000000000000
vt 1.000000000000 1.000000000000 0.000000000000
vt 0.000000000000 0.000000000000 0.000000000000
vt 1.000000000000 0.000000000000 0.000000000000
vt 0.000000000000 1.000000000000 0.000000000000
vt 1.000000000000 1.000000000000 0.000000000000
vt 0.000000000000 0.000000000000 0.000000000000
vt 1.000000000000 0.000000000000 0.000000000000
vt 0.000000000000 1.000000000000 0.000000000000
vt 1.000000000000 1.000000000000 0.000000000000
vt 1.000000000000 0.000000000000 0.000000000000
vt 0.000000000000 0.000000000000 0.000000000000
vt 1.000000000000 1.000000000000 0.000000000000
vt 0.000000000000 1.000000000000 0.000000000000
vt 0.000000000000 0.000000000000 0.000000000000
vt 1.000000000000 0.000000000000 0.000000000000
vt 0.000000000000 1.000000000000 0.000000000000
vt 1.000000000000 1.000000000000 0.000000000000
vt 0.000000000000 0.000000000000 0.000000000000
vt 1.000000000000 0.000000000000 0.000000000000
vt 0.000000000000 1.000000000000 0.000000000000
vt 1.000000000000 1.000000000000 0.000000000000
vt 0.000000000000 0.000000000000 0.000000000000
vt 1.000000000000 0.000000000000 0.000000000000
vt 0.000000000000 1.000000000000 0.000000000000
vt 1.000000000000 1.000000000000 0.000000000000
vt 0.000000000000 0.000000000000 0.000000000000
vt 1.000000000000 0.000000000000 0.000000000000
vt 0.000000000000 1.000000000000 0.000000000000
vt 1.000000000000 1.000000000000 0.000000000000
vt 0.000000000000 0.000000000000 0.000000000000
vt 1.000000000000 0.000000000000 0.000000000000
vt 0.000000000000 1.000000000000 0.000000000000
vt 1.000000000000 1.000000000000 0.000000000000
vt 1.000000000000 0.000000000000 0.000000000000
vt 0.000000000000 0.000000000000 0.000000000000
vt 1.000000000000 1.000000000000 0.000000000000
vt 0.000000000000 1.000000000000 0.000000000000
vt 0.000000000000 0.000000000000 0.000000000000
vt 1.000000000000 0.000000000000 0.000000000000
vt 0.000000000000 1.000000000000 0.000000000000
vt 1.000000000000 1.000000000000 0.000000000000
vt 0.000000000000 0.000000000000 0.000000000000
vt 1.000000000000 0.000000000000 0.000000000000
vt 0.000000000000 1.000000000000 0.000000000000
vt 1.000000000000 1.000000000000 0.000000000000
vt 0.000000000000 0.000000000000 0.000000000000
vt 1.000000000000 0.000000000000 0.000000000000
vt 0.000000000000 1.000000000000 0.000000000000
vt 1.000000000000 1.000000000000 0.000000000000
vt 0.000000000000 0.000000000000 0.000000000000
vt 1.000000000000 0.000000000000 0.000000000000
vt 0.000000000000 1.000000000000 0.000000000000
vt 1.000000000000 1.000000000000 0.000000000000
vt 0.000000000000 0.000000000000 0.000000000000
vt 1.000000000000 0.000000000000 0.000000000000
vt 0.000000000000 1.000000000000 0.000000000000
vt 1.000000000000 1.000000000000 0.000000000000
# 144 texture coords

g Box06
f 1/1/1 3/3/2 4/4/3 
f 4/4/4 2/2/5 1/1/6 
f 5/5/7 6/6/8 8/8/9 
f 8/8/10 7/7/11 5/5/12 
f 1/9/13 2/10/14 6/12/15 
f 6/12/16 5/11/17 1/9/18 
f 2/13/19 4/14/20 8/16/21 
f 8/16/22 6/15/23 2/13/24 
f 4/17/25 3/18/26 7/20/27 
f 7/20/28 8/19/29 4/17/30 
f 3/21/31 1/22/32 5/24/33 
f 5/24/34 7/23/35 3/21/36 
f 9/25/37 11/27/38 12/28/39 
f 12/28/40 10/26/41 9/25/42 
f 13/29/43 14/30/44 16/32/45 
f 16/32/46 15/31/47 13/29/48 
f 9/33/49 10/34/50 14/36/51 
f 14/36/52 13/35/53 9/33/54 
f 10/37/55 12/38/56 16/40/57 
f 16/40/58 14/39/59 10/37/60 
f 12/41/61 11/42/62 15/44/63 
f 15/44/64 16/43/65 12/41/66 
f 11/45/67 9/46/68 13/48/69 
f 13/48/70 15/47/71 11/45/72 
f 17/49/73 19/51/74 20/52/75 
f 20/52/76 18/50/77 17/49/78 
f 21/53/79 22/54/80 24/56/81 
f 24/56/82 23/55/83 21/53/84 
f 17/57/85 18/58/86 22/60/87 
f 22/60/88 21/59/89 17/57/90 
f 18/61/91 20/62/92 24/64/93 
f 24/64/94 22/63/95 18/61/96 
f 20/65/97 19/66/98 23/68/99 
f 23/68/100 24/67/101 20/65/102 
f 19/69/103 17/70/104 21/72/105 
f 21/72/106 23/71/107 19/69/108 
f 25/73/109 27/75/110 28/76/111 
f 28/76/112 26/74/113 25/73/114 
f 29/77/115 30/78/116 32/80/117 
f 32/80/118 31/79/119 29/77/120 
f 25/81/121 26/82/122 30/84/123 
f 30/84/124 29/83/125 25/81/126 
f 26/85/127 28/86/128 32/88/129 
f 32/88/130 30/87/131 26/85/132 
f 28/89/133 27/90/134 31/92/135 
f 31/92/136 32/91/137 28/89/138 
f 27/93/139 25/94/140 29/96/141 
f 29/96/142 31/95/143 27/93/144 
f 33/97/145 35/99/146 36/100/147 
f 36/100/148 34/98/149 33/97/150 
f 37/101/151 38/102/152 40/104/153 
f 40/104/154 39/103/155 37/101/156 
f 33/105/157 34/106/158 38/108/159 
f 38/108/160 37/107/161 33/105/162 
f 34/109/163 36/110/164 40/112/165 
f 40/112/166 38/111/167 34/109/168 
f 36/113/169 35/114/170 39/116/171 
f 39/116/172 40/115/173 36/113/174 
f 35/117/175 33/118/176 37/120/177 
f 37/120/178 39/119/179 35/117/180 
f 41/121/181 43/123/182 44/124/183 
f 44/124/184 42/122/185 41/121/186 
f 45/125/187 46/126/188 48/128/189 
f 48/128/190 47/127/191 45/125/192 
f 41/129/193 42/130/194 46/132/195 
f 46/132/196 45/131/197 41/129/198 
f 42/133/199 44/134/200 48/136/201 
f 48/136/202 46/135/203 42/133/204 
f 44/137/205 43/138/206 47/140/207 
f 47/140/208 48/139/209 44/137/210 
f 43/141/211 41/142/212 45/144/213 
f 45/144/214 47/143/215 43/141/216 
# 72 faces

